HIERARCHY
ROOT Hips
{
  OFFSET -53.8512 85.3383 30.5809
  CHANNELS 6 Xposition Yposition Zposition Zrotation Xrotation Yrotation
  JOINT ToSpine
  {
    OFFSET -2.69724 7.43032 -0.144315
    CHANNELS 3 Zrotation Xrotation Yrotation
    JOINT Spine
    {
      OFFSET -0.0310711 10.7595 1.96963
      CHANNELS 3 Zrotation Xrotation Yrotation
      JOINT Spine1
      {
        OFFSET 19.9056 3.91189 0.764692
        CHANNELS 3 Zrotation Xrotation Yrotation
        JOINT Neck
        {
          OFFSET 25.9749 7.03908 -0.130764
          CHANNELS 3 Zrotation Xrotation Yrotation
          JOINT Head
          {
            OFFSET 9.52751 0.295786 -0.907742
            CHANNELS 3 Zrotation Xrotation Yrotation
            End Site
            {
              OFFSET 16.4037 0.713936 2.7358
            }
          }
        }
        JOINT LeftShoulder
        {
          OFFSET 17.7449 4.33886 11.7777
          CHANNELS 3 Zrotation Xrotation Yrotation
          JOINT LeftArm
          {
            OFFSET 0.911315 1.27913 9.80584
            CHANNELS 3 Zrotation Xrotation Yrotation
            JOINT LeftForeArm
            {
              OFFSET 28.6126 1.18197 -3.53199
              CHANNELS 3 Zrotation Xrotation Yrotation
              JOINT LeftHand
              {
                OFFSET 27.5088 0.0218783 0.327423
                CHANNELS 3 Zrotation Xrotation Yrotation
                End Site
                {
                  OFFSET 18.6038 -0.000155887 0.382096
                }
              }
            }
          }
        }
        JOINT RightShoulder
        {
          OFFSET 17.1009 2.89543 -12.2328
          CHANNELS 3 Zrotation Xrotation Yrotation
          JOINT RightArm
          {
            OFFSET 1.4228 0.178766 -10.211
            CHANNELS 3 Zrotation Xrotation Yrotation
            JOINT RightForeArm
            {
              OFFSET 28.733 1.87905 2.64907
              CHANNELS 3 Zrotation Xrotation Yrotation
              JOINT RightHand
              {
                OFFSET 27.4588 0.290562 -0.101845
                CHANNELS 3 Zrotation Xrotation Yrotation
                End Site
                {
                  OFFSET 17.8396 -0.255518 -0.000602873
                }
              }
            }
          }
        }
      }
    }
  }
  JOINT LeftUpLeg
  {
    OFFSET -5.61296 -2.22332 -10.2353
    CHANNELS 3 Zrotation Xrotation Yrotation
    JOINT LeftLeg
    {
      OFFSET 2.56703 -44.7417 -7.93097
      CHANNELS 3 Zrotation Xrotation Yrotation
      JOINT LeftFoot
      {
        OFFSET 3.16933 -46.5642 -3.96578
        CHANNELS 3 Zrotation Xrotation Yrotation
        JOINT LeftToeBase
        {
          OFFSET 0.346054 -6.02161 12.8035
          CHANNELS 3 Zrotation Xrotation Yrotation
          End Site
          {
            OFFSET 0.134235 -1.35082 5.13018
          }
        }
      }
    }
  }
  JOINT RightUpLeg
  {
    OFFSET -5.7928 -1.72406 10.6446
    CHANNELS 3 Zrotation Xrotation Yrotation
    JOINT RightLeg
    {
      OFFSET -2.57161 -44.7178 -7.85259
      CHANNELS 3 Zrotation Xrotation Yrotation
      JOINT RightFoot
      {
        OFFSET -3.10148 -46.5936 -4.03391
        CHANNELS 3 Zrotation Xrotation Yrotation
        JOINT RightToeBase
        {
          OFFSET -0.0828122 -6.13587 12.8035
          CHANNELS 3 Zrotation Xrotation Yrotation
          End Site
          {
            OFFSET -0.131328 -1.35082 5.13018
          }
        }
      }
    }
  }
}
MOTION
Frames:	19
Frame Time:	0.0333333
-386.303 88.0496 -2.64612 67.8642 -8.83769 4.95428 -70.1915 0 88.8779 113.978 65.5187 -28.1767 6.13984 15.9051 8.59902 -156.894 13.8595 171.79 -141.46 48.1976 163.657 2.40362 0.864581 -23.5873 -80.1184 34.9429 -118.648 16.3476 4.12675 -74.8361 12.9456 -1.26181 -9.16985 0.0426732 0.864614 27.6656 -86.7564 -53.6679 55.9886 6.24396 -4.11319 40.9426 3.80786 -0.219584 -8.27039 -74.8237 -8.53299 73.5681 -4.10756 52.8337 -7.82378 2.52955 6.543 -0.093313 -4.20192 -4.49065 15.7151 -9.23229 -0.18296 90.7008 4.64341 65.3612 -4.10089 -2.875 -4.71948 0.735179 10.4361 -23.8143 -10.7679 
-375.414 89.3891 -1.10194 68.8146 -10.247 6.69177 -70.1915 0 88.8779 118.585 65.7016 -28.5285 8.48844 16.6195 8.59449 -156.987 14.1942 172.456 -143.647 48.7931 162.523 2.51998 1.58694 -23.8607 -79.1492 34.4519 -114.738 16.2914 2.1666 -82.3564 13.629 -1.04045 -6.83858 0.0265034 0.928648 28.1857 -85.355 -52.0744 60.8477 5.93174 -3.71591 41.3073 7.93734 0.0388441 0.240181 -69.882 -10.0686 76.1934 -8.13195 69.9491 1.91783 1.47035 8.33418 0.198356 -5.4602 -13.6615 17.9239 -14.1419 -3.24693 82.0124 4.17564 57.9768 3.50808 -4.009 -4.869 0.832587 6.82938 -6.48708 -14.4491 
-363.341 88.442 2.36565 71.1479 -13.5813 7.80177 -70.1915 0 88.8779 123.145 67.0222 -31.5509 9.6125 18.6377 9.03148 -157.014 14.7635 174.004 -142.717 49.1945 162.319 2.60071 1.46293 -24.7901 -79.1745 35.8202 -108.023 15.5611 2.96888 -78.6361 11.7689 -0.954441 -7.35478 0.168067 -0.014914 28.1635 -84.2497 -49.6435 70.2238 2.0339 0.732744 40.4265 8.55121 0.0582816 0.474119 -60.3822 -7.69775 83.2062 -109.875 86.5131 112.072 2.90859 8.72527 -0.05973 -3.1336 -7.24576 7.74656 -19.8304 0.877323 80.6568 5.41378 63.262 1.74395 -5.28405 -5.92762 0.961255 5.87163 -1.73596 -14.6997 
-351.78 87.2756 6.11595 73.4386 -15.5222 12.7594 -70.1915 0 88.8779 131.635 66.5939 -35.4193 9.04692 19.8221 10.3546 -157.438 15.5712 174.979 -142.245 49.9633 162.053 2.75194 1.44456 -26.2742 -80.188 37.0036 -102.343 13.0662 5.93814 -62.4734 14.2507 -0.952948 -5.79029 0.320458 -1.01375 28.8505 -85.4083 -46.2898 79.3632 3.46965 -0.930173 41.6618 8.86041 0.106629 1.11425 -47.5302 -1.90441 83.1745 -167.853 70.8972 174.243 9.43654 11.0075 -1.3534 -5.884 -22.9337 1.20625 -27.3315 6.2895 77.4002 6.81832 67.0033 0.159767 -6.45364 -5.89478 1.04313 8.55148 -14.2804 -14.1337 
-338.839 86.5611 9.43204 75.3605 -15.4768 16.5838 -70.1915 0 88.8779 138.261 66.1228 -37.6256 7.41375 20.7847 10.8177 -157.069 16.9182 174.996 -140.669 51.0499 161.301 2.6992 0.279252 -27.5197 -78.1688 37.581 -101.686 10.3991 9.55895 -41.1687 12.5085 -0.929233 -6.60699 0.308486 -0.98872 26.7773 -88.3567 -46.7684 85.364 7.0788 -4.39282 45.7835 7.88468 0.0713535 0.757036 -32.5424 -0.734283 79.7463 -168.838 63.5883 168.457 4.43689 3.35965 -0.53551 -6.69623 -26.2639 15.9943 -38.6503 10.3517 77.3383 8.10064 66.9165 5.2529 -8.58777 -9.12387 1.18339 11.3118 -23.6263 -16.7383 
-324.477 85.5036 12.0907 72.8398 -15.9763 13.8161 -70.1915 0 88.8779 134.289 68.9202 -32.9199 3.55698 22.0991 8.83789 -155.357 17.5095 172.166 -140.796 51.4653 159.383 2.66309 0.0564369 -27.5061 -67.4787 36.4576 -103.912 5.95389 6.86306 -28.983 12.101 -0.689463 -4.68901 0.275508 -0.776449 24.8615 -84.3144 -47.911 92.2995 6.28593 -3.06972 51.8545 6.93633 0.149033 2.33405 -16.236 -4.10789 80.5341 -167.964 68.3432 170.234 6.33938 3.30232 -0.820239 -8.0535 -33.0465 9.12585 -48.4171 8.39624 78.6227 7.48614 64.0379 8.87235 -9.00269 -13.1334 1.17282 12.8682 -30.338 -15.5125 
-309.015 87.0138 15.1759 73.2001 -16.3949 10.0026 -70.1915 0 88.8779 128.215 72.3366 -29.4167 3.00955 23.9893 5.84388 -152.773 18.1672 168.921 -142.034 52.8 159.792 2.35708 -1.07537 -25.9259 -55.544 37.849 -106.117 4.05164 5.09312 -21.588 14.1756 -0.60572 -3.10901 0.326762 -1.22167 24.4648 -80.86 -48.6676 94.2482 11.5937 -5.56376 59.874 6.56318 0.179283 3.08651 -9.57458 -4.34474 84.0547 -147.289 84.2806 153.532 5.75833 4.59643 -0.705537 -9.13959 -36.482 5.73689 -63.3167 8.02841 86.0632 4.70416 55.0352 9.66651 -10.1725 -14.0392 1.16474 11.8545 -25.7303 -17.0006 
-295.354 89.7755 17.8414 73.6056 -16.7105 7.3474 -70.1915 0 88.8779 124.377 74.3169 -28.1169 3.88887 25.0247 3.32684 -151.468 18.5439 168.268 -144.465 54.1818 161.97 2.33599 -0.673222 -25.0014 -59.8528 40.4016 -101.55 0.299395 15.0027 -15.8943 9.66129 -0.709291 -6.48692 0.39219 -1.77478 24.5357 -78.633 -50.6073 93.5352 12.974 -5.49116 63.9927 6.85753 0.322949 5.55831 -9.53535 -4.11333 85.4212 -6.658 72.4894 11.2526 3.97971 8.41795 -0.280044 -8.30783 -33.8206 7.95244 -71.5658 6.19187 90.1335 3.39779 51.2865 6.0667 -6.7537 -8.07464 1.09221 4.71516 -6.56971 -7.66533 
-282.918 91.5477 19.9791 74.3435 -17.5295 6.08772 -70.1915 0 88.8779 123.575 74.8898 -29.3346 5.70437 25.2533 1.76418 -151.729 18.0679 168.552 -145.41 53.7043 161.445 2.46796 -0.297387 -25.9256 -63.2928 42.4914 -96.5424 -1.57712 17.4977 -14.0883 7.33612 -0.556936 -6.7171 0.44825 -2.11201 25.7236 -76.5321 -50.8459 91.804 13.314 -5.90506 62.8685 6.52845 0.331656 6.05666 -13.2939 -3.61494 85.7814 -2.75649 54.551 2.39319 4.36161 12.4028 -0.219518 -7.07185 -27.868 7.41674 -69.6102 4.54919 91.9006 5.40609 62.9447 2.50402 -5.96034 -3.7096 0.965408 -0.629113 23.3809 -11.999 
-270.189 91.2468 22.5987 78.0578 -20.2126 4.53414 -70.1915 0 88.8779 129.034 74.7206 -38.9882 8.12512 26.0847 1.33997 -152.725 17.2447 168.954 -146.33 52.9411 161.903 2.38542 -0.791321 -25.7808 -56.267 45.002 -99.25 -0.0849413 11.4309 -16.3688 7.4214 -0.542769 -6.41624 0.533975 -2.6783 26.4218 -75.927 -52.5045 88.866 14.6496 -7.63132 58.9433 5.35309 0.196801 4.39322 -18.6832 -1.95388 89.3361 -2.87127 53.1037 0.42918 3.44454 10.5028 -0.0906597 -5.43645 -18.8992 10.0264 -63.9364 3.46547 96.0335 24.7473 82.171 -19.6183 -6.06987 -1.49758 0.934224 2.08838 12.8119 -12.986 
-256.661 89.7877 25.0943 82.4074 -18.4768 4.04072 -70.1915 0 88.8779 127.05 72.5753 -41.5538 10.2901 24.2125 1.63632 -152.386 15.9456 169.586 -145.551 51.3059 161.896 2.49206 -0.265386 -26.1462 -48.7769 43.5745 -104.53 1.40328 7.62752 -18.315 8.29721 -0.590888 -6.22485 0.589725 -2.91655 27.5503 -75.9696 -53.5472 84.0901 13.8815 -8.9811 52.2588 6.16377 0.315142 6.13865 -25.2371 -4.25862 92.9958 -4.70281 62.6443 2.24459 6.80781 13.4819 -0.758713 -6.35195 -24.2273 9.4049 -57.2796 0.907956 95.8408 153.177 81.1367 -150.152 -6.18477 -3.24427 0.977364 6.52208 1.63836 -18.3542 
-243.718 87.9463 27.0121 84.6418 -15.7025 2.98303 -70.1915 0 88.8779 123.18 70.0956 -41.6518 10.192 21.7119 2.27071 -153.172 14.4857 169.908 -144.985 49.1957 160.218 2.51475 0.307839 -25.5045 -52.2236 42.1137 -106.301 2.18164 11.2233 -18.0437 9.21659 -0.522472 -4.64202 0.632969 -3.0559 28.5853 -80.0609 -54.0494 75.201 13.5774 -10.461 46.7781 9.45316 0.236321 2.69448 -30.5572 -8.46344 94.9137 -8.33595 72.049 6.96197 9.94307 14.2801 -1.50684 -10.0337 -40.0404 5.72669 -45.2787 -2.53724 95.7037 164.691 72.8132 -162.134 -7.03533 -4.89379 1.07398 8.5784 -10.5132 -17.4843 
-231.051 87.3363 28.8272 83.1932 -12.297 3.02349 -70.1915 0 88.8779 116.324 69.0211 -35.1857 10.1232 19.5187 3.02341 -153.496 14.2433 171.405 -144.771 48.789 160.221 2.47671 -0.134745 -25.7648 -53.1588 38.7 -111.472 4.38053 7.71741 -20.6456 8.73912 -0.460562 -4.19958 0.579325 -2.68661 28.7471 -86.0488 -53.9143 63.9879 12.8043 -10.8988 43.2475 10.1442 0.0835841 0.637873 -34.8168 -10.2612 94.909 -15.7996 78.1093 10.4327 8.75464 12.7382 -1.21372 -11.7616 -45.2199 4.04945 -30.112 -3.43822 94.4016 162.839 74.4816 -158.218 -6.90528 -7.08671 1.0887 9.496 -13.4637 -18.7227 
-218.145 88.8787 30.8059 84.8661 -9.72689 7.04655 -70.1915 0 88.8779 119.232 67.4665 -35.4917 10.7607 18.5723 4.20895 -152.004 14.6504 171.538 -143.116 48.8004 159.536 2.36611 -0.350367 -24.85 -62.0804 38.6666 -111.883 7.39017 9.26138 -29.4272 11.0791 -0.52585 -3.63307 0.467201 -2.00734 28.2226 -84.3292 -55.4996 59.8857 6.84278 -4.91357 40.1786 9.42617 0.0270809 -0.0145824 -44.0681 -5.73291 94.2287 -25.6724 81.2991 15.3185 5.54646 9.21543 -0.562559 -10.1387 -40.3809 5.61443 -25.2756 -1.6892 89.3561 77.9169 86.3241 -73.2996 -7.25046 -7.83524 1.11582 9.95431 -17.5252 -16.9937 
-205.98 90.232 32.4214 84.5795 -6.55213 12.0759 -70.1915 0 88.8779 118.932 66.2503 -31.6141 11.712 17.0901 6.90647 -151.253 14.6509 171.633 -142.486 48.4905 158.598 2.52806 0.714775 -25.0606 -70.3607 39.4388 -110.096 13.0436 11.0959 -44.9983 11.9677 -0.803759 -5.81595 0.334129 -1.13453 27.8586 -81.4688 -55.4697 59.8141 5.5924 -3.42242 40.3495 7.6814 0.102093 1.28785 -45.8334 -1.03054 90.4298 -62.3344 85.6486 54.9297 2.76078 5.59699 -0.178993 -3.36202 -13.6758 -0.263032 -25.6963 0.558707 84.4524 6.24597 66.4133 -0.159506 -5.54054 -7.13563 1.00757 7.6749 -11.6053 -13.2421 
-193.441 91.2618 33.1236 84.3758 -1.02315 13.8729 -70.1915 0 88.8779 118.184 64.7922 -29.6678 12.4233 15.538 7.67658 -150.838 15.2 170.127 -143.115 49.2573 157.881 2.51383 0.910526 -24.6493 -75.3717 39.3665 -106.83 18.0574 7.92284 -64.4938 11.822 -0.865161 -6.48089 0.253364 -0.584455 28.2371 -79.0766 -54.3308 62.4024 2.64568 -0.00456991 41.398 9.17438 0.135112 1.44093 -45.2157 -4.2581 84.575 -121.886 85.3979 117.086 3.71829 7.05805 -0.282999 -4.39141 -13.1654 9.28701 -30.5345 -2.56442 80.8545 3.1533 50.0801 5.79802 -3.764 -4.59472 0.802429 5.41403 -5.55999 -10.6814 
-180.596 89.1247 34.6824 85.5518 1.3283 15.6062 -70.1915 0 88.8779 120.505 64.9556 -30.325 12.702 16.3128 7.67239 -149.569 15.9865 168.569 -141.701 50.0222 157.838 2.44251 0.68711 -24.2141 -78.6068 39.0852 -101.334 19.6457 2.30002 -83.3524 10.2306 -0.704561 -5.99247 0.290596 -0.829771 28.3733 -79.9247 -52.1138 66.4655 1.81668 0.87433 42.3802 9.55171 0.141685 1.44871 -40.2774 -5.10045 82.0744 -157.856 80.2366 160.823 6.27884 10.3366 -0.688849 -7.21737 -29.0838 10.7082 -31.794 -1.66424 79.9698 4.44713 55.8475 7.37238 -3.75311 -4.56348 0.800322 3.6537 -1.26647 -8.774 
-167.803 86.5215 36.5146 87.8605 1.88959 17.4764 -70.1915 0 88.8779 126.779 65.1226 -34.8642 10.7768 17.8446 7.78789 -148.394 15.9966 169.448 -142.089 50.7833 161.4 2.30419 0.157124 -23.442 -82.6518 40.085 -92.4799 20.1508 -1.47623 -95.2317 14.4299 -0.76175 -4.22706 0.360654 -1.31237 27.914 -77.5405 -49.5179 76.2149 4.79294 -2.31979 43.1542 10.6625 0.063553 0.357987 -32.83 -3.48131 80.7466 -162.652 76.018 163.068 6.51332 4.64556 -0.825327 -7.51134 -30.4646 9.72432 -35.9947 0.520712 78.6204 7.78504 67.1135 3.87447 -7.09688 -10.0066 1.12895 3.69133 2.43618 -11.3289 
-155.036 84.9754 37.9433 90.0687 0.69396 21.9282 -70.1915 0 88.8779 134.556 65.9616 -37.5874 10.3074 19.9671 8.54494 -151.971 16.0175 171.907 -144.517 50.9875 161.454 2.52549 0.715071 -25.0337 -87.579 39.136 -87.3022 21.4971 -0.764671 -92.7658 15.8489 -0.892441 -4.61711 0.423695 -1.88618 26.0927 -77.5053 -46.6968 87.2183 8.72818 -6.36886 43.8464 9.16145 0.0550251 0.370631 -24.734 1.60402 78.2486 -158.067 78.8434 155.878 6.34663 3.5023 -0.817938 -8.70166 -35.0302 6.59444 -43.5316 5.62593 75.8728 11.8805 72.2173 4.41488 -8.65712 -8.48313 1.18884 9.7051 -18.0988 -15.1727 
